<svg xmlns="http://www.w3.org/2000/svg" shape-rendering="geometricPrecision" text-rendering="geometricPrecision" image-rendering="optimizeQuality" fill-rule="evenodd" clip-rule="evenodd" viewBox="0 0 512 414.89"><path fill-rule="nonzero" d="M80.058 0h351.889c21.902 0 41.854 9.115 56.353 23.619C502.917 38.236 512 58.373 512 80.226v254.438c0 21.804-9.175 41.898-23.766 56.477-14.574 14.58-34.591 23.749-56.287 23.749H80.058c-21.744 0-41.827-9.076-56.423-23.683C9.121 376.698 0 356.686 0 334.664V80.226c0-22.065 9.028-42.131 23.57-56.672C38.101 9.022 58.101 0 80.058 0zm102.329 281.18c-11.288 0-21.321-1.972-30.104-5.856-8.746-3.911-15.623-9.305-20.626-16.149-4.997-6.877-7.534-14.77-7.567-23.717h39.247c.033 2.76.891 5.226 2.569 7.399 1.641 2.173 3.911 3.884 6.807 5.101 2.895 1.216 6.219 1.808 9.968 1.808 3.585 0 6.779-.624 9.538-1.906 2.733-1.32 4.905-3.097 6.448-5.362 1.516-2.303 2.271-4.938 2.238-7.865.033-2.896-.82-5.46-2.629-7.698-1.809-2.27-4.313-4.014-7.534-5.263-3.227-1.282-6.942-1.907-11.152-1.907h-14.574v-26.91h14.574c3.884 0 7.3-.625 10.261-1.907 2.96-1.249 5.296-2.993 6.942-5.231 1.678-2.271 2.466-4.835 2.434-7.73.032-2.797-.625-5.264-2.038-7.436-1.417-2.141-3.356-3.814-5.855-5.036-2.499-1.217-5.394-1.809-8.653-1.809-3.553 0-6.709.625-9.507 1.88-2.764 1.281-4.964 3.025-6.545 5.263-1.581 2.233-2.401 4.802-2.467 7.698h-37.274c.033-8.784 2.466-16.552 7.241-23.26 4.802-6.742 11.38-12.005 19.734-15.857 8.355-3.813 17.964-5.725 28.818-5.725 10.592 0 19.968 1.776 28.127 5.394 8.159 3.59 14.542 8.523 19.148 14.808 4.601 6.279 6.872 13.488 6.839 21.576.098 8.028-2.662 14.607-8.257 19.74-5.557 5.166-12.629 8.192-21.185 9.115v1.152c11.581 1.249 20.3 4.802 26.155 10.592 5.824 5.818 8.719 13.124 8.616 21.908.032 8.419-2.466 15.856-7.529 22.369-5.101 6.48-12.108 11.581-21.12 15.264-8.985 3.716-19.344 5.557-31.088 5.557zm134.009-1.972h-55.233V135.65h54.674c14.77 0 27.535 2.857 38.323 8.582 10.756 5.726 19.083 13.95 24.933 24.673 5.856 10.723 8.822 23.586 8.822 38.524 0 14.965-2.928 27.796-8.784 38.519-5.823 10.728-14.112 18.952-24.808 24.672-10.69 5.726-23.352 8.588-37.927 8.588zm-16.252-33.092h14.867c7.111 0 13.162-1.119 18.192-3.422 5.003-2.303 8.849-6.252 11.484-11.842 2.629-5.628 3.949-13.423 3.949-23.423 0-10.001-1.32-17.796-4.014-23.39-2.7-5.628-6.611-9.572-11.777-11.875-5.166-2.271-11.484-3.422-18.947-3.422h-13.754v77.374zM431.947 33.331H80.058c-13.004 0-24.792 5.286-33.293 13.787-8.496 8.495-13.771 20.218-13.771 33.108v254.438c0 12.809 5.34 24.488 13.836 32.978 8.577 8.583 20.403 13.917 33.228 13.917h351.889c12.744 0 24.515-5.399 33.092-13.982 8.572-8.566 13.967-20.283 13.967-32.913V80.226c0-12.711-5.33-24.471-13.901-33.043-8.501-8.501-20.24-13.852-33.158-13.852z"/></svg>