<svg width="271px" height="558px" viewBox="0 0 271 558" version="1.1" xmlns="http://www.w3.org/2000/svg" xmlns:xlink="http://www.w3.org/1999/xlink"><defs><linearGradient x1="91.4281214%" y1="55.6924181%" x2="11.2578538%" y2="43.3397303%" id="linearGradient-1"><stop stop-color="#607DD1" offset="0%"></stop><stop stop-color="#B55FFE" offset="100%"></stop></linearGradient><linearGradient x1="76.0266451%" y1="57.1424602%" x2="-5.58894296%" y2="30.5028748%" id="linearGradient-2"><stop stop-color="#60CED1" offset="0%"></stop><stop stop-color="#E55FFE" offset="100%"></stop></linearGradient><linearGradient x1="91.4281214%" y1="55.6923106%" x2="11.2578538%" y2="43.3398561%" id="linearGradient-3"><stop stop-color="#607DD1" offset="0%"></stop><stop stop-color="#B55FFE" offset="100%"></stop></linearGradient><radialGradient cx="50%" cy="50%" fx="50%" fy="50%" r="50%" id="radialGradient-4"><stop stop-color="#E55FFE" stop-opacity="0.670399913" offset="0%"></stop><stop stop-color="#E55FFE" stop-opacity="0" offset="100%"></stop></radialGradient><radialGradient cx="50%" cy="50%" fx="50%" fy="50%" r="50%" id="radialGradient-5"><stop stop-color="#60CED1" stop-opacity="0.797503278" offset="0%"></stop><stop stop-color="#60CED1" stop-opacity="0" offset="100%"></stop></radialGradient></defs><g id="01.-Landing---Cinema" stroke="none" stroke-width="1" fill="none" fill-rule="evenodd"><g id="01a.-Landing-Page---Cinema---Exploration" transform="translate(0.000000, -1994.000000)"><g id="Group-12" transform="translate(-418.000000, 1855.000000)"><g id="Section/Watch-More-For-Less"><g id="Group-2" transform="translate(387.000000, 440.500000) rotate(-90.000000) translate(-387.000000, -440.500000) translate(16.000000, 54.000000)"><g id="Group-3" transform="translate(85.131895, 127.686852)" fill-rule="nonzero" stroke-width="11"><path d="M391.108274,398.369886 C531.743638,450.575895 640.184083,358.491333 640.124672,308.926314 C640.065263,259.362899 528.481424,219.046893 390.89313,218.880621 C253.306432,218.71435 141.817321,258.759174 141.876734,308.325797 C141.936143,357.889212 250.474509,346.165484 391.108274,398.369886 Z" id="Path-Copy" stroke="url(#linearGradient-1)" opacity="0.118605841" transform="translate(391.000703, 316.390180) rotate(-210.000000) translate(-391.000703, -316.390180) "></path><g id="hero-bg-bottom" transform="translate(265.660367, 220.704815) rotate(176.000000) translate(-265.660367, -220.704815) translate(13.660367, 17.704815)"><path d="M222.809228,296.553658 C312.336819,399.444288 472.294411,203.921503 472.190141,159.910618 C472.085873,115.900619 373.319549,79.9876617 251.589754,79.698025 C129.85996,79.4083882 31.2626925,114.85175 31.3669605,158.861749 C31.4712307,202.872634 133.281639,193.663913 222.809228,296.553658 Z" id="Path" stroke="url(#linearGradient-2)" transform="translate(251.778535, 202.891226) rotate(24.000000) translate(-251.778535, -202.891226) "></path><path d="M269.387133,225.719243 C347.06208,254.616425 406.871438,203.875473 406.806639,176.524726 C406.741844,149.17575 345.111608,126.858219 269.152484,126.677487 C193.192479,126.496752 131.66818,148.521256 131.732977,175.871118 C131.797772,203.220094 191.711303,196.821173 269.387133,225.719243 Z" id="Path" stroke="url(#linearGradient-3)" opacity="0.566336496" transform="translate(269.269809, 180.509435) rotate(24.000000) translate(-269.269809, -180.509435) "></path></g></g><g id="Group" opacity="0.549037388" transform="translate(0.336974, 0.668619)"><circle id="Oval" fill="url(#radialGradient-4)" opacity="0.385439918" transform="translate(418.188215, 487.074579) rotate(315.000000) translate(-418.188215, -487.074579) " cx="418.188215" cy="487.074579" r="200.822601"></circle><circle id="Oval-Copy" fill="url(#radialGradient-5)" opacity="0.43405878" transform="translate(341.383673, 341.217986) rotate(315.000000) translate(-341.383673, -341.217986) " cx="341.383673" cy="341.217986" r="240.761055"></circle></g></g></g></g></g></g></svg>