<svg width="28" height="29" viewBox="0 0 28 29" fill="none" xmlns="http://www.w3.org/2000/svg"><path fill-rule="evenodd" clip-rule="evenodd" d="M13.8095 17.0316L1.70603 8.75731C1.56886 8.66324 1.3909 8.65192 1.24162 8.72682C1.09324 8.80129 1 8.95066 1 9.1131V16.8548V17.92V25.6616C1 25.824 1.09324 25.9734 1.24162 26.0483C1.30707 26.081 1.3779 26.0971 1.44828 26.0971C1.53883 26.0971 1.62938 26.0701 1.70603 26.0174L13.8095 17.7431C13.9292 17.6621 14 17.5289 14 17.3874C14 17.2458 13.9292 17.1126 13.8095 17.0316Z" stroke="url(#paint0_linear_363_9605)" stroke-width="3" stroke-linecap="round"></path><path fill-rule="evenodd" clip-rule="evenodd" d="M25.7655 15.0169L10.869 4.9039C10.7001 4.78893 10.4811 4.77509 10.2974 4.86664C10.1148 4.95766 10 5.14022 10 5.33876V14.8008V16.1027V25.5647C10 25.7632 10.1148 25.9458 10.2974 26.0374C10.3779 26.0773 10.4651 26.097 10.5517 26.097C10.6632 26.097 10.7746 26.064 10.869 25.9996L25.7655 15.8866C25.9128 15.7876 26 15.6247 26 15.4517C26 15.2787 25.9128 15.1159 25.7655 15.0169Z" stroke="url(#paint1_linear_363_9605)" stroke-width="3" stroke-linecap="round"></path><defs><linearGradient id="paint0_linear_363_9605" x1="18.1266" y1="16.8772" x2="4.71696" y2="6.81232" gradientUnits="userSpaceOnUse"><stop stop-color="#607DD1"></stop><stop offset="1" stop-color="#B55FFE"></stop></linearGradient><linearGradient id="paint1_linear_363_9605" x1="28.9861" y1="11.6313" x2="12.0896" y2="-1.63566" gradientUnits="userSpaceOnUse"><stop stop-color="#60CED1"></stop><stop offset="1" stop-color="#E55FFE"></stop></linearGradient></defs></svg>